<svg width="41" height="40" viewBox="0 0 41 40" fill="none" xmlns="http://www.w3.org/2000/svg">
<path d="M27.1342 9.27453C27.1342 10.4022 26.7305 11.4853 26.0093 12.2865C24.3494 14.1314 22.7397 16.0551 21.0178 17.8331C20.6232 18.2347 19.9971 18.2201 19.6193 17.8003L14.6587 12.2865C13.1593 10.6198 13.1593 7.92922 14.6587 6.26261C16.1729 4.57961 18.6396 4.57961 20.1537 6.26261L20.334 6.46301L20.5142 6.26272C21.2403 5.45536 22.229 5 23.2618 5C24.2947 5 25.2834 5.45532 26.0093 6.26261C26.7305 7.06387 27.1342 8.14691 27.1342 9.27453Z" stroke="black" stroke-opacity="0.8" stroke-width="2" stroke-linejoin="round"/>
<path d="M30.5337 35L37.035 27.8294C37.2263 27.6185 37.3337 27.3324 37.3337 27.0341V17.1875C37.3337 15.6342 36.192 14.375 34.7837 14.375C33.3754 14.375 32.2337 15.6342 32.2337 17.1875V25.625" stroke="black" stroke-opacity="0.8" stroke-width="2" stroke-linecap="round" stroke-linejoin="round"/>
<path d="M30.5335 27.5L31.9923 25.8911C32.1468 25.7206 32.2335 25.4896 32.2335 25.2489C32.2335 24.9048 32.0572 24.5904 31.7782 24.4365L31.0253 24.0213C29.7165 23.2995 28.1355 23.5824 27.1007 24.7237L25.5794 26.4016C24.9417 27.105 24.5835 28.0588 24.5835 29.0533V35" stroke="black" stroke-opacity="0.8" stroke-width="2" stroke-linecap="round" stroke-linejoin="round"/>
<path d="M10.1335 35L3.63225 27.8294C3.44095 27.6185 3.3335 27.3324 3.3335 27.0341V17.1875C3.3335 15.6342 4.47517 14.375 5.8835 14.375C7.29183 14.375 8.43351 15.6342 8.43351 17.1875V25.625" stroke="black" stroke-opacity="0.8" stroke-width="2" stroke-linecap="round" stroke-linejoin="round"/>
<path d="M10.1331 27.5L8.67428 25.8911C8.51986 25.7206 8.43311 25.4896 8.43311 25.2489C8.43311 24.9048 8.60933 24.5904 8.8883 24.4365L9.64125 24.0213C10.9502 23.2995 12.5311 23.5824 13.5659 24.7237L15.0873 26.4016C15.7249 27.105 16.0831 28.0588 16.0831 29.0533V35" stroke="black" stroke-opacity="0.8" stroke-width="2" stroke-linecap="round" stroke-linejoin="round"/>
<rect width="17" height="17" transform="translate(12.3335 3)" fill="white"/>
<path d="M12.3335 11.5H20.8335M20.8335 11.5H29.3335M20.8335 11.5V3M20.8335 11.5V20" stroke="black" stroke-opacity="0.8" stroke-width="1.5" stroke-linecap="round" stroke-linejoin="round"/>
</svg>
