<svg width="41" height="40" viewBox="0 0 41 40" fill="none" xmlns="http://www.w3.org/2000/svg">
<g clip-path="url(#clip0_69_1321)">
<path d="M26.222 28.8889C26.222 29.1836 26.1049 29.4662 25.8966 29.6746C25.6882 29.8829 25.4056 30 25.1109 30H9.55534C9.31089 30 9.07756 30.2222 8.87756 30.3667L5.11089 33.3333V15.5556C5.11089 15.2609 5.22796 14.9783 5.43633 14.7699C5.6447 14.5615 5.92732 14.4445 6.222 14.4445H10.5109V12.2222H6.222C5.33795 12.2222 4.4901 12.5734 3.86498 13.1985C3.23986 13.8237 2.88867 14.6715 2.88867 15.5556V35.5556C2.89033 35.7619 2.94941 35.9637 3.05931 36.1384C3.16921 36.3131 3.32558 36.4537 3.51089 36.5445C3.68943 36.6256 3.88627 36.6581 4.08142 36.6386C4.27657 36.6191 4.46309 36.5483 4.622 36.4333L10.3442 32.2222H25.2776C25.6987 32.2347 26.1179 32.1605 26.5092 32.0044C26.9005 31.8483 27.2556 31.6134 27.5524 31.3145C27.8493 31.0155 28.0816 30.6588 28.235 30.2664C28.3884 29.8741 28.4596 29.4544 28.4442 29.0333V27.7778H26.222V28.8889Z" fill="black" fill-opacity="0.8"/>
<path d="M35.1109 4.44446H16.222C15.338 4.44446 14.4901 4.79565 13.865 5.42077C13.2399 6.04589 12.8887 6.89374 12.8887 7.77779V21.1111C12.8887 21.9952 13.2399 22.843 13.865 23.4681C14.4901 24.0933 15.338 24.4445 16.222 24.4445H31.2776L36.5887 28.5667C36.7466 28.6834 36.9326 28.7562 37.1277 28.7777C37.3229 28.7992 37.5203 28.7685 37.6998 28.6889C37.8889 28.5988 38.0486 28.4572 38.1607 28.2803C38.2728 28.1033 38.3325 27.8983 38.3331 27.6889V7.77779C38.3336 6.91266 37.9977 6.08122 37.3964 5.4592C36.7951 4.83718 35.9756 4.4733 35.1109 4.44446ZM36.222 25.4889L32.3331 22.4556C32.1392 22.305 31.9008 22.223 31.6553 22.2222H16.222C15.9273 22.2222 15.6447 22.1052 15.4363 21.8968C15.228 21.6884 15.1109 21.4058 15.1109 21.1111V7.77779C15.1109 7.48311 15.228 7.20049 15.4363 6.99212C15.6447 6.78374 15.9273 6.66668 16.222 6.66668H35.1109C35.4079 6.69364 35.6848 6.82826 35.8895 7.04519C36.0941 7.26212 36.2124 7.54638 36.222 7.84446V25.4889Z" fill="black" fill-opacity="0.8"/>
<rect width="17" height="17" transform="translate(21.6665 20)" fill="white"/>
<path d="M21.6665 28.5H30.1665M30.1665 28.5H38.6665M30.1665 28.5V20M30.1665 28.5V37" stroke="black" stroke-opacity="0.8" stroke-width="1.5" stroke-linecap="round" stroke-linejoin="round"/>
</g>
<defs>
<clipPath id="clip0_69_1321">
<rect width="40" height="40" fill="white" transform="translate(0.666504)"/>
</clipPath>
</defs>
</svg>
