<svg width="41" height="37" viewBox="0 0 41 37" fill="none" xmlns="http://www.w3.org/2000/svg">
<path d="M5.55 14.5V14.75H5.8H28.2H28.45V14.5V7C28.45 6.05004 27.7273 5.25 26.8 5.25H7.2C6.27277 5.25 5.55 6.05003 5.55 7V14.5ZM5.8 17.25H5.55V17.5V28C5.55 28.95 6.27277 29.75 7.2 29.75H26.8C27.7273 29.75 28.45 28.95 28.45 28V17.5V17.25H28.2H5.8ZM19.9828 22.4507L19.8 22.2549L19.6172 22.4507L16.4072 25.8901L15.0072 27.3901C14.5593 27.8699 13.8407 27.8699 13.3928 27.3901C12.9357 26.9004 12.9357 26.0996 13.3928 25.6099L13.21 25.4394L13.3928 25.6099L13.8029 25.1706L13.9621 25L13.8029 24.8294L12.9828 23.9507L12.8 23.7549L12.6172 23.9507L9.40719 27.3901C8.95929 27.8699 8.24071 27.8699 7.7928 27.3901C7.33573 26.9004 7.33573 26.0996 7.79281 25.6099L7.61005 25.4394L7.79281 25.6099L11.9928 21.1099C11.9928 21.1099 11.9928 21.1099 11.9928 21.1099C12.21 20.8772 12.5008 20.75 12.8 20.75C13.0992 20.75 13.39 20.8772 13.6072 21.1099L15.4172 23.0493L15.6 23.2451L15.7828 23.0493L18.9928 19.6099C19.21 19.3773 19.5008 19.25 19.8 19.25C20.0992 19.25 20.39 19.3773 20.6072 19.6099L26.2072 25.6099C26.6642 26.0996 26.6642 26.9004 26.2072 27.3901C25.7593 27.8699 25.0407 27.8699 24.5928 27.3901L19.9828 22.4507ZM3.25 7C3.25 4.63627 5.03445 2.75 7.2 2.75H26.8C28.9656 2.75 30.75 4.63627 30.75 7V28C30.75 30.3638 28.9656 32.25 26.8 32.25H7.2C5.03444 32.25 3.25 30.3638 3.25 28V7ZM15.85 10C15.85 9.29312 16.3808 8.75 17 8.75H24C24.6192 8.75 25.15 9.29312 25.15 10C25.15 10.7069 24.6192 11.25 24 11.25H17C16.3808 11.25 15.85 10.7069 15.85 10ZM12.2 10C12.2 11.3282 11.1991 12.375 10 12.375C8.80094 12.375 7.8 11.3282 7.8 10C7.8 8.6718 8.80094 7.625 10 7.625C11.1991 7.625 12.2 8.6718 12.2 10Z" fill="black" fill-opacity="0.8" stroke="white" stroke-width="0.5"/>
<rect width="17" height="17" transform="translate(23 18.5)" fill="white"/>
<path d="M23 27H31.5M31.5 27H40M31.5 27V18.5M31.5 27V35.5" stroke="black" stroke-opacity="0.8" stroke-width="1.5" stroke-linecap="round" stroke-linejoin="round"/>
</svg>
