<svg width="41" height="41" viewBox="0 0 41 41" fill="none" xmlns="http://www.w3.org/2000/svg">
<path d="M36.8298 15.4C36.3036 15.18 35.6911 15.0512 35.0498 15.0512C34.3298 15.0512 33.6473 15.2125 33.0361 15.5013L33.0648 15.4887L25.8423 18.7337C25.8461 18.675 25.8748 18.6237 25.8748 18.565C25.8573 16.8512 24.4636 15.4688 22.7473 15.4688C22.6611 15.4688 22.5773 15.4725 22.4923 15.4787L22.5036 15.4775H17.7748L11.8248 13.735C11.7473 13.7113 11.6573 13.6975 11.5636 13.6975H11.5611H8.84984V12.75C8.84984 12.2325 8.42984 11.8125 7.91234 11.8125H3.05859C2.54109 11.8125 2.12109 12.2325 2.12109 12.75V28.01C2.12109 28.5275 2.54109 28.9475 3.05859 28.9475H7.91234C8.42984 28.9475 8.84984 28.5275 8.84984 28.01V26.755C11.1223 27.11 13.1573 27.6825 15.0848 28.4625L14.8973 28.395C16.3461 28.915 18.0186 29.215 19.7611 29.215C21.7698 29.215 23.6848 28.8162 25.4311 28.0925L25.3323 28.1287C26.8861 27.4375 28.2048 26.7088 29.4536 25.88L29.3511 25.9437C29.7736 25.6825 30.1936 25.4212 30.6186 25.17C32.6698 23.9563 34.3073 22.8963 35.7798 21.8313C36.5048 21.315 37.1373 20.8037 37.7386 20.26L37.7198 20.2762C38.1823 19.9 38.5523 19.4275 38.8011 18.8888L38.8111 18.865C38.8511 18.765 38.8736 18.65 38.8736 18.5288C38.8736 18.4588 38.8661 18.39 38.8511 18.3237L38.8523 18.33C38.6686 17.06 37.9073 15.9975 36.8486 15.4075L36.8286 15.3975L36.8298 15.4ZM6.97609 27.075H3.99734V13.69H6.97609V27.075ZM36.3986 18.9487C35.8836 19.4112 35.3223 19.8612 34.7386 20.2775L34.6798 20.3175C33.2586 21.345 31.6648 22.3763 29.6623 23.5625C29.2273 23.8188 28.7986 24.085 28.3661 24.3512C27.2973 25.0687 26.0686 25.7525 24.7836 26.3337L24.6211 26.3987C23.1811 26.99 21.5086 27.3337 19.7573 27.3337C18.2536 27.3337 16.8098 27.0813 15.4636 26.615L15.5561 26.6425C13.6123 25.8275 11.3511 25.205 8.99359 24.88L8.84984 24.8637V15.5737H11.4261L17.3761 17.3162C17.4536 17.34 17.5436 17.3537 17.6373 17.3537H17.6398H22.5023C23.6061 17.3537 23.9986 18.0062 23.9986 18.5662C23.9986 19.1262 23.6061 19.7788 22.5023 19.7788H13.9911C13.4736 19.7788 13.0536 20.1988 13.0536 20.7163C13.0536 21.2338 13.4736 21.6538 13.9911 21.6538H23.7173C23.8561 21.6538 23.9873 21.6238 24.1061 21.57L24.0998 21.5725L33.8436 17.195C34.2023 17.03 34.6223 16.9325 35.0648 16.9325C35.3973 16.9325 35.7161 16.9863 36.0148 17.0875L35.9936 17.0813C36.4711 17.3675 36.8161 17.8363 36.9311 18.3875L36.9336 18.4C36.7648 18.5987 36.5886 18.7775 36.3998 18.9425L36.3936 18.9475L36.3986 18.9487Z" fill="black" fill-opacity="0.8"/>
</svg>
