<svg width="83" height="81" viewBox="0 0 83 81" fill="none" xmlns="http://www.w3.org/2000/svg">
<g filter="url(#filter0_d_73_10740)">
<path d="M79 36.3722C79 56.46 62.2107 72.7444 41.5 72.7444C20.7893 72.7444 4 56.46 4 36.3722C4 16.2844 20.7893 0 41.5 0C62.2107 0 79 16.2844 79 36.3722Z" fill="url(#paint0_linear_73_10740)"/>
</g>
<ellipse cx="40.7477" cy="35.6426" rx="34.384" ry="33.5583" fill="#FFDC6E"/>
<g filter="url(#filter1_d_73_10740)">
<path d="M29.5189 38.608C33.6665 36.2855 34.4262 30.0054 31.2126 24.6067C27.9992 19.2084 22.0111 16.7052 17.8637 19.0277C13.7174 21.3496 12.9579 27.6311 16.1714 33.0295C19.385 38.4282 25.3726 40.9299 29.5189 38.608Z" fill="black"/>
</g>
<path d="M28.5249 37.0638C31.9702 35.1345 32.6013 29.9178 29.9318 25.4331C27.2625 20.9489 22.2883 18.8696 18.8431 20.7988C15.3988 22.7276 14.768 27.9455 17.4373 32.4299C20.1068 36.9145 25.0806 38.9926 28.5249 37.0638Z" fill="#F35843"/>
<g filter="url(#filter2_d_73_10740)">
<path d="M38.5817 33.0703L38.3105 33.22C31.9667 36.7725 29.9298 42.6685 29.9095 49.8667C29.8959 53.1012 30.7765 56.2413 32.3901 58.707C34.1017 61.3257 36.4343 62.8926 38.9528 63.1214C39.97 63.2132 40.8978 63.027 41.7151 62.5693C43.4003 61.6256 44.3388 59.7461 45.4267 57.5687C46.4467 55.5216 47.4662 53.0849 49.5257 51.9315C51.5265 50.8111 54.2168 51.2797 56.4771 51.509C58.8309 51.7496 61.053 51.9761 62.7515 51.025C63.4804 50.6168 64.0645 50.0154 64.4899 49.2369C66.8368 44.9425 63.887 38.418 57.9158 34.6929C51.5989 30.7526 44.9348 29.6396 38.5817 33.0703Z" fill="black"/>
</g>
<g filter="url(#filter3_d_73_10740)">
<path d="M39.6766 34.582L39.4343 34.7139C33.7656 37.8401 31.7505 42.7936 31.4377 48.7728C31.2932 51.4596 31.9311 54.0434 33.2348 56.0467C34.6176 58.1743 36.5842 59.4112 38.7675 59.5315C39.6493 59.5796 40.4647 59.3992 41.195 58.9965C42.7009 58.166 43.595 56.579 44.6314 54.7404C45.6034 53.0119 46.5909 50.9598 48.4313 49.9448C50.2191 48.9588 52.5421 49.2736 54.5006 49.4015C56.54 49.5362 58.4653 49.6628 59.9831 48.8258C60.6344 48.4666 61.1675 47.9509 61.5698 47.2925C63.7892 43.6608 61.4886 38.3233 56.4426 35.3946C51.1046 32.2967 45.3483 31.5567 39.6766 34.582Z" fill="#F35843"/>
</g>
<g filter="url(#filter4_d_73_10740)">
<path d="M46.6007 29.4191C50.7462 27.0976 51.5067 20.8171 48.2932 15.4184C45.0798 10.0201 39.091 7.51733 34.9455 9.83878C30.7975 12.1616 30.0385 18.4428 33.2519 23.8413C36.4655 29.2399 42.4527 31.7418 46.6007 29.4191Z" fill="black"/>
</g>
<g filter="url(#filter5_d_73_10740)">
<path d="M45.4718 27.5871C48.8623 25.6885 49.4843 20.5519 46.856 16.1364C44.2279 11.7213 39.3299 9.67442 35.9394 11.5731C32.5469 13.4728 31.9261 18.61 34.5543 23.0252C37.1826 27.4407 42.0793 29.4869 45.4718 27.5871Z" fill="#F35843"/>
</g>
<g filter="url(#filter6_d_73_10740)">
<path d="M55.9529 14.8496C52.2453 15.8131 50.374 20.2966 51.6893 25.0576C53.004 29.8164 56.9377 32.7917 60.6435 31.8286C64.3489 30.8656 66.2237 26.3808 64.909 21.6219C63.5938 16.861 59.6601 13.8861 55.9529 14.8496Z" fill="black"/>
</g>
<g filter="url(#filter7_d_73_10740)">
<path d="M56.4823 16.4162C53.4422 17.2063 51.9078 20.8825 52.9862 24.7864C54.0642 28.6885 57.2898 31.1281 60.3284 30.3384C63.3667 29.5488 64.904 25.8714 63.826 21.9693C62.7475 18.0655 59.5221 15.6262 56.4823 16.4162Z" fill="#F35843"/>
</g>
<g filter="url(#filter8_d_73_10740)">
<path d="M23.6337 40.6629C19.2328 38.1985 14.2825 38.7927 12.3641 42.0154C10.4458 45.2382 12.3901 49.694 16.7909 52.1584C21.1899 54.6217 26.1408 54.0272 28.0592 50.8044C29.9775 47.5816 28.0326 43.1262 23.6337 40.6629Z" fill="black"/>
</g>
<g filter="url(#filter9_d_73_10740)">
<path d="M22.9543 41.6129C19.272 39.5508 15.1299 40.0481 13.5248 42.7446C11.9196 45.4412 13.5465 49.1695 17.2288 51.2315C20.9096 53.2927 25.0521 52.7953 26.6573 50.0986C28.2625 47.402 26.6351 43.674 22.9543 41.6129Z" fill="#F35843"/>
</g>
<defs>
<filter id="filter0_d_73_10740" x="0" y="0" width="83" height="80.7444" filterUnits="userSpaceOnUse" color-interpolation-filters="sRGB">
<feFlood flood-opacity="0" result="BackgroundImageFix"/>
<feColorMatrix in="SourceAlpha" type="matrix" values="0 0 0 0 0 0 0 0 0 0 0 0 0 0 0 0 0 0 127 0" result="hardAlpha"/>
<feOffset dy="4"/>
<feGaussianBlur stdDeviation="2"/>
<feComposite in2="hardAlpha" operator="out"/>
<feColorMatrix type="matrix" values="0 0 0 0 0 0 0 0 0 0 0 0 0 0 0 0 0 0 0.25 0"/>
<feBlend mode="normal" in2="BackgroundImageFix" result="effect1_dropShadow_73_10740"/>
<feBlend mode="normal" in="SourceGraphic" in2="effect1_dropShadow_73_10740" result="shape"/>
</filter>
<filter id="filter1_d_73_10740" x="10.1814" y="17.1603" width="27.021" height="29.3149" filterUnits="userSpaceOnUse" color-interpolation-filters="sRGB">
<feFlood flood-opacity="0" result="BackgroundImageFix"/>
<feColorMatrix in="SourceAlpha" type="matrix" values="0 0 0 0 0 0 0 0 0 0 0 0 0 0 0 0 0 0 127 0" result="hardAlpha"/>
<feOffset dy="3"/>
<feGaussianBlur stdDeviation="2"/>
<feComposite in2="hardAlpha" operator="out"/>
<feColorMatrix type="matrix" values="0 0 0 0 0 0 0 0 0 0 0 0 0 0 0 0 0 0 0.25 0"/>
<feBlend mode="normal" in2="BackgroundImageFix" result="effect1_dropShadow_73_10740"/>
<feBlend mode="normal" in="SourceGraphic" in2="effect1_dropShadow_73_10740" result="shape"/>
</filter>
<filter id="filter2_d_73_10740" x="25.9094" y="30.0236" width="43.387" height="40.1205" filterUnits="userSpaceOnUse" color-interpolation-filters="sRGB">
<feFlood flood-opacity="0" result="BackgroundImageFix"/>
<feColorMatrix in="SourceAlpha" type="matrix" values="0 0 0 0 0 0 0 0 0 0 0 0 0 0 0 0 0 0 127 0" result="hardAlpha"/>
<feOffset dy="3"/>
<feGaussianBlur stdDeviation="2"/>
<feComposite in2="hardAlpha" operator="out"/>
<feColorMatrix type="matrix" values="0 0 0 0 0 0 0 0 0 0 0 0 0 0 0 0 0 0 0.25 0"/>
<feBlend mode="normal" in2="BackgroundImageFix" result="effect1_dropShadow_73_10740"/>
<feBlend mode="normal" in="SourceGraphic" in2="effect1_dropShadow_73_10740" result="shape"/>
</filter>
<filter id="filter3_d_73_10740" x="27.4175" y="31.6556" width="38.998" height="34.8835" filterUnits="userSpaceOnUse" color-interpolation-filters="sRGB">
<feFlood flood-opacity="0" result="BackgroundImageFix"/>
<feColorMatrix in="SourceAlpha" type="matrix" values="0 0 0 0 0 0 0 0 0 0 0 0 0 0 0 0 0 0 127 0" result="hardAlpha"/>
<feOffset dy="3"/>
<feGaussianBlur stdDeviation="2"/>
<feComposite in2="hardAlpha" operator="out"/>
<feColorMatrix type="matrix" values="0 0 0 0 0 0 0 0 0 0 0 0 0 0 0 0 0 0 0.25 0"/>
<feBlend mode="normal" in2="BackgroundImageFix" result="effect1_dropShadow_73_10740"/>
<feBlend mode="normal" in="SourceGraphic" in2="effect1_dropShadow_73_10740" result="shape"/>
</filter>
<filter id="filter4_d_73_10740" x="27.262" y="7.97192" width="27.021" height="29.3149" filterUnits="userSpaceOnUse" color-interpolation-filters="sRGB">
<feFlood flood-opacity="0" result="BackgroundImageFix"/>
<feColorMatrix in="SourceAlpha" type="matrix" values="0 0 0 0 0 0 0 0 0 0 0 0 0 0 0 0 0 0 127 0" result="hardAlpha"/>
<feOffset dy="3"/>
<feGaussianBlur stdDeviation="2"/>
<feComposite in2="hardAlpha" operator="out"/>
<feColorMatrix type="matrix" values="0 0 0 0 0 0 0 0 0 0 0 0 0 0 0 0 0 0 0.25 0"/>
<feBlend mode="normal" in2="BackgroundImageFix" result="effect1_dropShadow_73_10740"/>
<feBlend mode="normal" in="SourceGraphic" in2="effect1_dropShadow_73_10740" result="shape"/>
</filter>
<filter id="filter5_d_73_10740" x="28.9268" y="9.86407" width="23.5566" height="25.4328" filterUnits="userSpaceOnUse" color-interpolation-filters="sRGB">
<feFlood flood-opacity="0" result="BackgroundImageFix"/>
<feColorMatrix in="SourceAlpha" type="matrix" values="0 0 0 0 0 0 0 0 0 0 0 0 0 0 0 0 0 0 127 0" result="hardAlpha"/>
<feOffset dy="3"/>
<feGaussianBlur stdDeviation="2"/>
<feComposite in2="hardAlpha" operator="out"/>
<feColorMatrix type="matrix" values="0 0 0 0 0 0 0 0 0 0 0 0 0 0 0 0 0 0 0.25 0"/>
<feBlend mode="normal" in2="BackgroundImageFix" result="effect1_dropShadow_73_10740"/>
<feBlend mode="normal" in="SourceGraphic" in2="effect1_dropShadow_73_10740" result="shape"/>
</filter>
<filter id="filter6_d_73_10740" x="47.2693" y="13.6686" width="22.0588" height="25.3408" filterUnits="userSpaceOnUse" color-interpolation-filters="sRGB">
<feFlood flood-opacity="0" result="BackgroundImageFix"/>
<feColorMatrix in="SourceAlpha" type="matrix" values="0 0 0 0 0 0 0 0 0 0 0 0 0 0 0 0 0 0 127 0" result="hardAlpha"/>
<feOffset dy="3"/>
<feGaussianBlur stdDeviation="2"/>
<feComposite in2="hardAlpha" operator="out"/>
<feColorMatrix type="matrix" values="0 0 0 0 0 0 0 0 0 0 0 0 0 0 0 0 0 0 0.25 0"/>
<feBlend mode="normal" in2="BackgroundImageFix" result="effect1_dropShadow_73_10740"/>
<feBlend mode="normal" in="SourceGraphic" in2="effect1_dropShadow_73_10740" result="shape"/>
</filter>
<filter id="filter7_d_73_10740" x="48.6418" y="15.2678" width="19.5278" height="22.2188" filterUnits="userSpaceOnUse" color-interpolation-filters="sRGB">
<feFlood flood-opacity="0" result="BackgroundImageFix"/>
<feColorMatrix in="SourceAlpha" type="matrix" values="0 0 0 0 0 0 0 0 0 0 0 0 0 0 0 0 0 0 127 0" result="hardAlpha"/>
<feOffset dy="3"/>
<feGaussianBlur stdDeviation="2"/>
<feComposite in2="hardAlpha" operator="out"/>
<feColorMatrix type="matrix" values="0 0 0 0 0 0 0 0 0 0 0 0 0 0 0 0 0 0 0.25 0"/>
<feBlend mode="normal" in2="BackgroundImageFix" result="effect1_dropShadow_73_10740"/>
<feBlend mode="normal" in="SourceGraphic" in2="effect1_dropShadow_73_10740" result="shape"/>
</filter>
<filter id="filter8_d_73_10740" x="7.62646" y="38.1443" width="25.1704" height="22.5317" filterUnits="userSpaceOnUse" color-interpolation-filters="sRGB">
<feFlood flood-opacity="0" result="BackgroundImageFix"/>
<feColorMatrix in="SourceAlpha" type="matrix" values="0 0 0 0 0 0 0 0 0 0 0 0 0 0 0 0 0 0 127 0" result="hardAlpha"/>
<feOffset dy="3"/>
<feGaussianBlur stdDeviation="2"/>
<feComposite in2="hardAlpha" operator="out"/>
<feColorMatrix type="matrix" values="0 0 0 0 0 0 0 0 0 0 0 0 0 0 0 0 0 0 0.25 0"/>
<feBlend mode="normal" in2="BackgroundImageFix" result="effect1_dropShadow_73_10740"/>
<feBlend mode="normal" in="SourceGraphic" in2="effect1_dropShadow_73_10740" result="shape"/>
</filter>
<filter id="filter9_d_73_10740" x="8.90747" y="39.3422" width="22.3669" height="20.1592" filterUnits="userSpaceOnUse" color-interpolation-filters="sRGB">
<feFlood flood-opacity="0" result="BackgroundImageFix"/>
<feColorMatrix in="SourceAlpha" type="matrix" values="0 0 0 0 0 0 0 0 0 0 0 0 0 0 0 0 0 0 127 0" result="hardAlpha"/>
<feOffset dy="3"/>
<feGaussianBlur stdDeviation="2"/>
<feComposite in2="hardAlpha" operator="out"/>
<feColorMatrix type="matrix" values="0 0 0 0 0 0 0 0 0 0 0 0 0 0 0 0 0 0 0.25 0"/>
<feBlend mode="normal" in2="BackgroundImageFix" result="effect1_dropShadow_73_10740"/>
<feBlend mode="normal" in="SourceGraphic" in2="effect1_dropShadow_73_10740" result="shape"/>
</filter>
<linearGradient id="paint0_linear_73_10740" x1="41.6074" y1="1.04218" x2="61.5255" y2="66.526" gradientUnits="userSpaceOnUse">
<stop offset="0.585"/>
</linearGradient>
</defs>
</svg>
