<svg width="29" height="30" viewBox="0 0 29 30" fill="none" xmlns="http://www.w3.org/2000/svg">
<g clip-path="url(#clip0_70_2129)">
<path d="M19.7468 11.0622C19.7468 13.7807 17.543 15.9845 14.8246 15.9845C12.1061 15.9845 9.90234 13.7807 9.90234 11.0622C9.90234 8.34375 12.1061 6.13998 14.8246 6.13998C17.543 6.13998 19.7468 8.34375 19.7468 11.0622Z" fill="black" stroke="black" stroke-width="2"/>
<path d="M5.96484 23.8601C6.90724 20.8316 9.33164 19.9223 14.8249 19.9223C20.3181 19.9223 22.7425 20.8316 23.6849 23.8601" fill="black"/>
<path d="M5.96484 23.8601C6.90724 20.8316 9.33164 19.9223 14.8249 19.9223C20.3181 19.9223 22.7425 20.8316 23.6849 23.8601" stroke="black" stroke-width="2" stroke-linecap="round"/>
</g>
<defs>
<clipPath id="clip0_70_2129">
<rect width="28.3521" height="28.3521" fill="white" transform="translate(0.648438 0.823975)"/>
</clipPath>
</defs>
</svg>
