<svg width="120" height="29" viewBox="0 0 120 29" fill="none" xmlns="http://www.w3.org/2000/svg">
<path d="M4.776 26.288C4.17867 26.288 3.74133 26.2027 3.464 26.032C3.18667 25.8613 3.016 25.6267 2.952 25.328C2.888 25.008 2.856 24.6773 2.856 24.336V5.872C2.856 5.53067 2.888 5.22133 2.952 4.944C3.03733 4.64533 3.21867 4.41067 3.496 4.24C3.77333 4.048 4.21067 3.952 4.808 3.952H11.592C12.5307 3.952 13.448 4.112 14.344 4.432C15.24 4.752 16.04 5.232 16.744 5.872C17.4693 6.512 18.0347 7.30133 18.44 8.24C18.8667 9.17867 19.08 10.2773 19.08 11.536C19.08 12.7733 18.8667 13.8613 18.44 14.8C18.0347 15.7173 17.4693 16.496 16.744 17.136C16.0187 17.776 15.208 18.256 14.312 18.576C13.4373 18.896 12.52 19.056 11.56 19.056H6.728V24.368C6.728 24.7093 6.68533 25.0293 6.6 25.328C6.536 25.6267 6.36533 25.8613 6.088 26.032C5.832 26.2027 5.39467 26.288 4.776 26.288ZM6.728 15.152H11.592C12.2533 15.152 12.8507 15.024 13.384 14.768C13.9387 14.4907 14.3867 14.0853 14.728 13.552C15.0693 12.9973 15.24 12.304 15.24 11.472C15.24 10.7253 15.08 10.0853 14.76 9.552C14.4613 8.99733 14.0347 8.57067 13.48 8.272C12.9467 7.97333 12.3067 7.824 11.56 7.824H6.728V15.152ZM34.9403 26.256C34.3216 26.256 33.8629 26.1387 33.5643 25.904C33.2656 25.6693 33.1163 25.3493 33.1163 24.944L33.3403 23.888C33.1696 24.1653 32.8816 24.496 32.4763 24.88C32.0709 25.2427 31.5376 25.5733 30.8763 25.872C30.2149 26.1493 29.4149 26.288 28.4763 26.288C27.4736 26.288 26.5243 26.0853 25.6283 25.68C24.7536 25.2533 23.9749 24.6773 23.2923 23.952C22.6309 23.2053 22.0976 22.3627 21.6923 21.424C21.3083 20.464 21.1163 19.44 21.1163 18.352C21.1163 17.3067 21.3083 16.3253 21.6923 15.408C22.0976 14.4693 22.6416 13.6373 23.3243 12.912C24.0069 12.1867 24.7856 11.6213 25.6603 11.216C26.5563 10.7893 27.4949 10.576 28.4763 10.576C29.3509 10.576 30.0869 10.6933 30.6843 10.928C31.3029 11.1627 31.8256 11.4613 32.2523 11.824C32.6789 12.1653 33.0309 12.528 33.3083 12.912L33.1163 11.984C33.1163 11.5147 33.2656 11.1627 33.5643 10.928C33.8629 10.672 34.3323 10.544 34.9723 10.544C35.5696 10.544 35.9963 10.64 36.2523 10.832C36.5083 11.0027 36.6683 11.248 36.7323 11.568C36.7963 11.8667 36.8283 12.208 36.8283 12.592V24.304C36.8283 24.6667 36.7963 24.9973 36.7323 25.296C36.6683 25.5947 36.4976 25.8293 36.2203 26C35.9643 26.1707 35.5376 26.256 34.9403 26.256ZM29.0523 22.544C29.7776 22.544 30.4283 22.3627 31.0043 22C31.5803 21.6373 32.0389 21.1467 32.3803 20.528C32.7429 19.888 32.9243 19.184 32.9243 18.416C32.9243 17.584 32.7429 16.8587 32.3803 16.24C32.0176 15.6213 31.5376 15.1413 30.9403 14.8C30.3643 14.4373 29.7136 14.256 28.9883 14.256C28.1989 14.256 27.4949 14.448 26.8763 14.832C26.2576 15.1947 25.7669 15.696 25.4043 16.336C25.0629 16.9547 24.8923 17.6587 24.8923 18.448C24.8923 19.216 25.0736 19.9093 25.4363 20.528C25.7989 21.1467 26.2896 21.6373 26.9083 22C27.5483 22.3627 28.2629 22.544 29.0523 22.544ZM45.799 26.288C45.3723 26.288 45.031 26.2027 44.775 26.032C44.5403 25.8827 44.359 25.6907 44.231 25.456C44.1243 25.2213 44.0283 25.008 43.943 24.816L39.239 12.912C39.111 12.5067 39.047 12.1653 39.047 11.888C39.0683 11.6107 39.175 11.376 39.367 11.184C39.5803 10.9707 39.8897 10.7893 40.295 10.64C40.9777 10.3627 41.511 10.288 41.895 10.416C42.3003 10.544 42.599 10.9067 42.791 11.504L45.831 19.568L48.583 11.856C48.647 11.664 48.743 11.4613 48.871 11.248C48.999 11.0347 49.1803 10.8533 49.415 10.704C49.671 10.5333 50.0123 10.448 50.439 10.448C50.887 10.448 51.239 10.5333 51.495 10.704C51.751 10.8533 51.943 11.0347 52.071 11.248C52.2203 11.4613 52.3163 11.664 52.359 11.856L55.111 19.632L58.023 11.792C58.279 11.1307 58.599 10.6933 58.983 10.48C59.367 10.2667 59.8897 10.288 60.551 10.544C61.1483 10.8 61.5537 11.12 61.767 11.504C61.9803 11.8667 61.959 12.3467 61.703 12.944L56.967 24.816C56.8817 25.0293 56.775 25.2533 56.647 25.488C56.5403 25.7013 56.359 25.8827 56.103 26.032C55.8683 26.2027 55.5483 26.288 55.143 26.288C54.7163 26.288 54.375 26.2133 54.119 26.064C53.8843 25.936 53.703 25.7547 53.575 25.52C53.447 25.2853 53.3403 25.04 53.255 24.784L50.471 16.88L47.687 24.784C47.559 25.0827 47.4417 25.3493 47.335 25.584C47.2283 25.8187 47.0577 25.9893 46.823 26.096C46.5883 26.224 46.247 26.288 45.799 26.288Z" fill="#F35843"/>
<rect x="63" width="56" height="29" rx="10" fill="#FFDC6E"/>
<path d="M70.776 26.288C70.1787 26.288 69.7413 26.2027 69.464 26.032C69.1867 25.8613 69.016 25.6267 68.952 25.328C68.888 25.008 68.856 24.6773 68.856 24.336V5.872C68.856 5.53067 68.888 5.22133 68.952 4.944C69.0373 4.64533 69.2187 4.41067 69.496 4.24C69.7733 4.048 70.2107 3.952 70.808 3.952H77.592C78.5307 3.952 79.448 4.112 80.344 4.432C81.24 4.752 82.04 5.232 82.744 5.872C83.4693 6.512 84.0347 7.30133 84.44 8.24C84.8667 9.17867 85.08 10.2773 85.08 11.536C85.08 12.7733 84.8667 13.8613 84.44 14.8C84.0347 15.7173 83.4693 16.496 82.744 17.136C82.0187 17.776 81.208 18.256 80.312 18.576C79.4373 18.896 78.52 19.056 77.56 19.056H72.728V24.368C72.728 24.7093 72.6853 25.0293 72.6 25.328C72.536 25.6267 72.3653 25.8613 72.088 26.032C71.832 26.2027 71.3947 26.288 70.776 26.288ZM72.728 15.152H77.592C78.2533 15.152 78.8507 15.024 79.384 14.768C79.9387 14.4907 80.3867 14.0853 80.728 13.552C81.0693 12.9973 81.24 12.304 81.24 11.472C81.24 10.7253 81.08 10.0853 80.76 9.552C80.4613 8.99733 80.0347 8.57067 79.48 8.272C78.9467 7.97333 78.3067 7.824 77.56 7.824H72.728V15.152ZM100.94 26.256C100.322 26.256 99.8629 26.1387 99.5643 25.904C99.2656 25.6693 99.1163 25.3493 99.1163 24.944L99.3403 23.888C99.1696 24.1653 98.8816 24.496 98.4763 24.88C98.0709 25.2427 97.5376 25.5733 96.8763 25.872C96.2149 26.1493 95.4149 26.288 94.4763 26.288C93.4736 26.288 92.5243 26.0853 91.6283 25.68C90.7536 25.2533 89.9749 24.6773 89.2923 23.952C88.6309 23.2053 88.0976 22.3627 87.6923 21.424C87.3083 20.464 87.1163 19.44 87.1163 18.352C87.1163 17.3067 87.3083 16.3253 87.6923 15.408C88.0976 14.4693 88.6416 13.6373 89.3243 12.912C90.0069 12.1867 90.7856 11.6213 91.6603 11.216C92.5563 10.7893 93.4949 10.576 94.4763 10.576C95.3509 10.576 96.0869 10.6933 96.6843 10.928C97.3029 11.1627 97.8256 11.4613 98.2523 11.824C98.6789 12.1653 99.0309 12.528 99.3083 12.912L99.1163 11.984C99.1163 11.5147 99.2656 11.1627 99.5643 10.928C99.8629 10.672 100.332 10.544 100.972 10.544C101.57 10.544 101.996 10.64 102.252 10.832C102.508 11.0027 102.668 11.248 102.732 11.568C102.796 11.8667 102.828 12.208 102.828 12.592V24.304C102.828 24.6667 102.796 24.9973 102.732 25.296C102.668 25.5947 102.498 25.8293 102.22 26C101.964 26.1707 101.538 26.256 100.94 26.256ZM95.0523 22.544C95.7776 22.544 96.4283 22.3627 97.0043 22C97.5803 21.6373 98.0389 21.1467 98.3803 20.528C98.7429 19.888 98.9243 19.184 98.9243 18.416C98.9243 17.584 98.7429 16.8587 98.3803 16.24C98.0176 15.6213 97.5376 15.1413 96.9403 14.8C96.3643 14.4373 95.7136 14.256 94.9883 14.256C94.1989 14.256 93.4949 14.448 92.8763 14.832C92.2576 15.1947 91.7669 15.696 91.4043 16.336C91.0629 16.9547 90.8923 17.6587 90.8923 18.448C90.8923 19.216 91.0736 19.9093 91.4363 20.528C91.7989 21.1467 92.2896 21.6373 92.9083 22C93.5483 22.3627 94.2629 22.544 95.0523 22.544ZM111.543 26.32C110.754 26.32 110.05 26.2667 109.431 26.16C108.834 26.0533 108.311 25.872 107.863 25.616C107.436 25.36 107.084 25.0187 106.807 24.592C106.53 24.144 106.316 23.6 106.167 22.96C106.039 22.32 105.975 21.552 105.975 20.656V5.232C105.975 4.86933 106.007 4.54933 106.071 4.272C106.156 3.97333 106.327 3.73867 106.583 3.568C106.86 3.376 107.298 3.28 107.895 3.28C108.492 3.28 108.919 3.36533 109.175 3.536C109.452 3.70667 109.623 3.94133 109.687 4.24C109.772 4.51733 109.815 4.83733 109.815 5.2V20.496C109.815 20.9013 109.836 21.2427 109.879 21.52C109.943 21.776 110.039 21.9893 110.167 22.16C110.316 22.3093 110.498 22.416 110.711 22.48C110.946 22.544 111.223 22.576 111.543 22.576C111.82 22.576 112.066 22.608 112.279 22.672C112.514 22.736 112.695 22.896 112.823 23.152C112.972 23.408 113.047 23.824 113.047 24.4C113.047 24.9973 112.972 25.4347 112.823 25.712C112.695 25.9893 112.514 26.16 112.279 26.224C112.044 26.288 111.799 26.32 111.543 26.32Z" fill="black"/>
</svg>
