<svg width="123" height="120" viewBox="0 0 123 120" fill="none" xmlns="http://www.w3.org/2000/svg">
<g filter="url(#filter0_d_45_229)">
<path d="M119 56C119 86.9279 93.2564 112 61.5 112C29.7436 112 4 86.9279 4 56C4 25.0721 29.7436 0 61.5 0C93.2564 0 119 25.0721 119 56Z" fill="url(#paint0_linear_45_229)"/>
</g>
<ellipse cx="60.3466" cy="54.8769" rx="52.7221" ry="51.6676" fill="#FFDC6E"/>
<g filter="url(#filter1_d_45_229)">
<path d="M43.1289 59.4423C49.4884 55.8664 50.6533 46.1974 45.7258 37.8853C40.7987 29.5739 31.6169 25.72 25.2575 29.2958C18.8998 32.8707 17.7354 42.5419 22.6626 50.8535C27.5901 59.1656 36.7711 63.0172 43.1289 59.4423Z" fill="black"/>
</g>
<path d="M41.6047 57.0649C46.8875 54.0944 47.8551 46.0625 43.7619 39.1578C39.669 32.2536 32.0419 29.0523 26.7593 32.0226C21.478 34.9922 20.5107 43.0259 24.6037 49.9303C28.6969 56.835 36.3234 60.0345 41.6047 57.0649Z" fill="#F35843"/>
<g filter="url(#filter2_d_45_229)">
<path d="M57.0253 50.9163L56.6095 51.1468C46.8824 56.6162 43.759 65.694 43.7279 76.7766C43.7071 81.7565 45.0573 86.5911 47.5315 90.3875C50.156 94.4193 53.7327 96.8318 57.5944 97.184C59.1541 97.3254 60.5767 97.0387 61.8299 96.334C64.4139 94.881 65.8529 91.9873 67.521 88.6349C69.0849 85.4831 70.6482 81.7314 73.8062 79.9557C76.8741 78.2307 80.9992 78.9521 84.4649 79.3052C88.0741 79.6756 91.4814 80.0244 94.0857 78.56C95.2034 77.9315 96.0989 77.0055 96.7512 75.807C100.35 69.1952 95.8268 59.1498 86.6709 53.4144C76.985 47.3479 66.7667 45.6342 57.0253 50.9163Z" fill="black"/>
</g>
<g filter="url(#filter3_d_45_229)">
<path d="M58.7041 53.2439L58.3327 53.4469C49.6407 58.26 46.5508 65.8866 46.0711 75.0924C45.8496 79.2293 46.8277 83.2072 48.8268 86.2916C50.9471 89.5674 53.9625 91.4718 57.3102 91.657C58.6623 91.7311 59.9126 91.4534 61.0324 90.8333C63.3414 89.5546 64.7124 87.1112 66.3016 84.2804C67.7919 81.6191 69.3061 78.4596 72.128 76.897C74.8694 75.3789 78.4313 75.8635 81.4342 76.0604C84.5614 76.2678 87.5135 76.4628 89.8408 75.1741C90.8395 74.621 91.6569 73.827 92.2738 72.8134C95.6768 67.2218 92.1492 59.004 84.4121 54.4948C76.2271 49.7253 67.4008 48.586 58.7041 53.2439Z" fill="#F35843"/>
</g>
<g filter="url(#filter4_d_45_229)">
<path d="M69.3211 45.2947C75.6776 41.7205 76.8438 32.0508 71.9163 23.7387C66.9891 15.4273 57.8063 11.574 51.4498 15.1482C45.0896 18.7244 43.9258 28.3953 48.8531 36.7069C53.7806 45.0189 62.961 48.871 69.3211 45.2947Z" fill="black"/>
</g>
<g filter="url(#filter5_d_45_229)">
<path d="M67.5902 42.4743C72.789 39.5511 73.7427 31.6425 69.7127 24.8443C65.6829 18.0467 58.1726 14.8952 52.9738 17.8184C47.772 20.7433 46.8202 28.6528 50.85 35.4506C54.8801 42.2487 62.3884 45.3992 67.5902 42.4743Z" fill="#F35843"/>
</g>
<g filter="url(#filter6_d_45_229)">
<path d="M83.6613 22.8629C77.9765 24.3464 75.1071 31.2493 77.1238 38.5796C79.1397 45.9065 85.1714 50.4873 90.8536 49.0045C96.5353 47.5218 99.4099 40.6168 97.3941 33.2899C95.3774 25.9598 89.3458 21.3795 83.6613 22.8629Z" fill="black"/>
</g>
<g filter="url(#filter7_d_45_229)">
<path d="M84.4731 25.2749C79.8117 26.4913 77.4589 32.1515 79.1126 38.1621C80.7655 44.1699 85.7113 47.926 90.3705 46.7101C95.0293 45.4944 97.3864 39.8325 95.7335 33.8247C94.0799 27.8143 89.1341 24.0586 84.4731 25.2749Z" fill="#F35843"/>
</g>
<g filter="url(#filter8_d_45_229)">
<path d="M34.1054 62.6063C27.3574 58.812 19.7668 59.7269 16.8254 64.6887C13.8839 69.6507 16.8652 76.5109 23.6132 80.3052C30.3583 84.0979 37.9496 83.1826 40.8911 78.2206C43.8326 73.2586 40.8504 66.399 34.1054 62.6063Z" fill="black"/>
</g>
<g filter="url(#filter9_d_45_229)">
<path d="M33.0638 64.0688C27.4175 60.894 21.0663 61.6595 18.6051 65.8112C16.1438 69.9631 18.6384 75.7032 24.2846 78.878C29.9285 82.0515 36.2804 81.2856 38.7416 77.1338C41.2029 72.9819 38.7076 67.2423 33.0638 64.0688Z" fill="#F35843"/>
</g>
<defs>
<filter id="filter0_d_45_229" x="0" y="0" width="123" height="120" filterUnits="userSpaceOnUse" color-interpolation-filters="sRGB">
<feFlood flood-opacity="0" result="BackgroundImageFix"/>
<feColorMatrix in="SourceAlpha" type="matrix" values="0 0 0 0 0 0 0 0 0 0 0 0 0 0 0 0 0 0 127 0" result="hardAlpha"/>
<feOffset dy="4"/>
<feGaussianBlur stdDeviation="2"/>
<feComposite in2="hardAlpha" operator="out"/>
<feColorMatrix type="matrix" values="0 0 0 0 0 0 0 0 0 0 0 0 0 0 0 0 0 0 0.25 0"/>
<feBlend mode="normal" in2="BackgroundImageFix" result="effect1_dropShadow_45_229"/>
<feBlend mode="normal" in="SourceGraphic" in2="effect1_dropShadow_45_229" result="shape"/>
</filter>
<filter id="filter1_d_45_229" x="15.6113" y="26.9603" width="37.1655" height="40.8173" filterUnits="userSpaceOnUse" color-interpolation-filters="sRGB">
<feFlood flood-opacity="0" result="BackgroundImageFix"/>
<feColorMatrix in="SourceAlpha" type="matrix" values="0 0 0 0 0 0 0 0 0 0 0 0 0 0 0 0 0 0 127 0" result="hardAlpha"/>
<feOffset dy="3"/>
<feGaussianBlur stdDeviation="2"/>
<feComposite in2="hardAlpha" operator="out"/>
<feColorMatrix type="matrix" values="0 0 0 0 0 0 0 0 0 0 0 0 0 0 0 0 0 0 0.25 0"/>
<feBlend mode="normal" in2="BackgroundImageFix" result="effect1_dropShadow_45_229"/>
<feBlend mode="normal" in="SourceGraphic" in2="effect1_dropShadow_45_229" result="shape"/>
</filter>
<filter id="filter2_d_45_229" x="39.7275" y="46.7651" width="62.2603" height="57.454" filterUnits="userSpaceOnUse" color-interpolation-filters="sRGB">
<feFlood flood-opacity="0" result="BackgroundImageFix"/>
<feColorMatrix in="SourceAlpha" type="matrix" values="0 0 0 0 0 0 0 0 0 0 0 0 0 0 0 0 0 0 127 0" result="hardAlpha"/>
<feOffset dy="3"/>
<feGaussianBlur stdDeviation="2"/>
<feComposite in2="hardAlpha" operator="out"/>
<feColorMatrix type="matrix" values="0 0 0 0 0 0 0 0 0 0 0 0 0 0 0 0 0 0 0.25 0"/>
<feBlend mode="normal" in2="BackgroundImageFix" result="effect1_dropShadow_45_229"/>
<feBlend mode="normal" in="SourceGraphic" in2="effect1_dropShadow_45_229" result="shape"/>
</filter>
<filter id="filter3_d_45_229" x="42.0405" y="49.2778" width="55.5298" height="49.3909" filterUnits="userSpaceOnUse" color-interpolation-filters="sRGB">
<feFlood flood-opacity="0" result="BackgroundImageFix"/>
<feColorMatrix in="SourceAlpha" type="matrix" values="0 0 0 0 0 0 0 0 0 0 0 0 0 0 0 0 0 0 127 0" result="hardAlpha"/>
<feOffset dy="3"/>
<feGaussianBlur stdDeviation="2"/>
<feComposite in2="hardAlpha" operator="out"/>
<feColorMatrix type="matrix" values="0 0 0 0 0 0 0 0 0 0 0 0 0 0 0 0 0 0 0.25 0"/>
<feBlend mode="normal" in2="BackgroundImageFix" result="effect1_dropShadow_45_229"/>
<feBlend mode="normal" in="SourceGraphic" in2="effect1_dropShadow_45_229" result="shape"/>
</filter>
<filter id="filter4_d_45_229" x="41.8018" y="12.8136" width="37.1655" height="40.8171" filterUnits="userSpaceOnUse" color-interpolation-filters="sRGB">
<feFlood flood-opacity="0" result="BackgroundImageFix"/>
<feColorMatrix in="SourceAlpha" type="matrix" values="0 0 0 0 0 0 0 0 0 0 0 0 0 0 0 0 0 0 127 0" result="hardAlpha"/>
<feOffset dy="3"/>
<feGaussianBlur stdDeviation="2"/>
<feComposite in2="hardAlpha" operator="out"/>
<feColorMatrix type="matrix" values="0 0 0 0 0 0 0 0 0 0 0 0 0 0 0 0 0 0 0.25 0"/>
<feBlend mode="normal" in2="BackgroundImageFix" result="effect1_dropShadow_45_229"/>
<feBlend mode="normal" in="SourceGraphic" in2="effect1_dropShadow_45_229" result="shape"/>
</filter>
<filter id="filter5_d_45_229" x="44.3545" y="15.7268" width="31.8535" height="34.8402" filterUnits="userSpaceOnUse" color-interpolation-filters="sRGB">
<feFlood flood-opacity="0" result="BackgroundImageFix"/>
<feColorMatrix in="SourceAlpha" type="matrix" values="0 0 0 0 0 0 0 0 0 0 0 0 0 0 0 0 0 0 127 0" result="hardAlpha"/>
<feOffset dy="3"/>
<feGaussianBlur stdDeviation="2"/>
<feComposite in2="hardAlpha" operator="out"/>
<feColorMatrix type="matrix" values="0 0 0 0 0 0 0 0 0 0 0 0 0 0 0 0 0 0 0.25 0"/>
<feBlend mode="normal" in2="BackgroundImageFix" result="effect1_dropShadow_45_229"/>
<feBlend mode="normal" in="SourceGraphic" in2="effect1_dropShadow_45_229" result="shape"/>
</filter>
<filter id="filter6_d_45_229" x="72.48" y="21.5844" width="29.5566" height="34.6985" filterUnits="userSpaceOnUse" color-interpolation-filters="sRGB">
<feFlood flood-opacity="0" result="BackgroundImageFix"/>
<feColorMatrix in="SourceAlpha" type="matrix" values="0 0 0 0 0 0 0 0 0 0 0 0 0 0 0 0 0 0 127 0" result="hardAlpha"/>
<feOffset dy="3"/>
<feGaussianBlur stdDeviation="2"/>
<feComposite in2="hardAlpha" operator="out"/>
<feColorMatrix type="matrix" values="0 0 0 0 0 0 0 0 0 0 0 0 0 0 0 0 0 0 0.25 0"/>
<feBlend mode="normal" in2="BackgroundImageFix" result="effect1_dropShadow_45_229"/>
<feBlend mode="normal" in="SourceGraphic" in2="effect1_dropShadow_45_229" result="shape"/>
</filter>
<filter id="filter7_d_45_229" x="74.5845" y="24.0465" width="25.6763" height="29.8918" filterUnits="userSpaceOnUse" color-interpolation-filters="sRGB">
<feFlood flood-opacity="0" result="BackgroundImageFix"/>
<feColorMatrix in="SourceAlpha" type="matrix" values="0 0 0 0 0 0 0 0 0 0 0 0 0 0 0 0 0 0 127 0" result="hardAlpha"/>
<feOffset dy="3"/>
<feGaussianBlur stdDeviation="2"/>
<feComposite in2="hardAlpha" operator="out"/>
<feColorMatrix type="matrix" values="0 0 0 0 0 0 0 0 0 0 0 0 0 0 0 0 0 0 0.25 0"/>
<feBlend mode="normal" in2="BackgroundImageFix" result="effect1_dropShadow_45_229"/>
<feBlend mode="normal" in="SourceGraphic" in2="effect1_dropShadow_45_229" result="shape"/>
</filter>
<filter id="filter8_d_45_229" x="11.6943" y="59.2682" width="34.3276" height="30.3737" filterUnits="userSpaceOnUse" color-interpolation-filters="sRGB">
<feFlood flood-opacity="0" result="BackgroundImageFix"/>
<feColorMatrix in="SourceAlpha" type="matrix" values="0 0 0 0 0 0 0 0 0 0 0 0 0 0 0 0 0 0 127 0" result="hardAlpha"/>
<feOffset dy="3"/>
<feGaussianBlur stdDeviation="2"/>
<feComposite in2="hardAlpha" operator="out"/>
<feColorMatrix type="matrix" values="0 0 0 0 0 0 0 0 0 0 0 0 0 0 0 0 0 0 0.25 0"/>
<feBlend mode="normal" in2="BackgroundImageFix" result="effect1_dropShadow_45_229"/>
<feBlend mode="normal" in="SourceGraphic" in2="effect1_dropShadow_45_229" result="shape"/>
</filter>
<filter id="filter9_d_45_229" x="13.6587" y="61.1124" width="30.0293" height="26.7208" filterUnits="userSpaceOnUse" color-interpolation-filters="sRGB">
<feFlood flood-opacity="0" result="BackgroundImageFix"/>
<feColorMatrix in="SourceAlpha" type="matrix" values="0 0 0 0 0 0 0 0 0 0 0 0 0 0 0 0 0 0 127 0" result="hardAlpha"/>
<feOffset dy="3"/>
<feGaussianBlur stdDeviation="2"/>
<feComposite in2="hardAlpha" operator="out"/>
<feColorMatrix type="matrix" values="0 0 0 0 0 0 0 0 0 0 0 0 0 0 0 0 0 0 0.25 0"/>
<feBlend mode="normal" in2="BackgroundImageFix" result="effect1_dropShadow_45_229"/>
<feBlend mode="normal" in="SourceGraphic" in2="effect1_dropShadow_45_229" result="shape"/>
</filter>
<linearGradient id="paint0_linear_45_229" x1="61.6647" y1="1.60459" x2="92.436" y2="102.356" gradientUnits="userSpaceOnUse">
<stop offset="0.585"/>
</linearGradient>
</defs>
</svg>
