<svg width="40" height="40" viewBox="0 0 40 40" fill="none" xmlns="http://www.w3.org/2000/svg">
<g clip-path="url(#clip0_252_1044)">
<path d="M25.5556 28.8889C25.5556 29.1836 25.4385 29.4662 25.2301 29.6746C25.0218 29.8829 24.7391 30 24.4444 30H8.8889C8.64445 30 8.41112 30.2222 8.21112 30.3667L4.44445 33.3333V15.5556C4.44445 15.2609 4.56151 14.9783 4.76989 14.7699C4.97826 14.5615 5.26088 14.4445 5.55556 14.4445H9.84445V12.2222H5.55556C4.67151 12.2222 3.82366 12.5734 3.19854 13.1985C2.57342 13.8237 2.22223 14.6715 2.22223 15.5556V35.5556C2.22388 35.7619 2.28297 35.9637 2.39287 36.1384C2.50277 36.3131 2.65914 36.4537 2.84445 36.5445C3.02298 36.6256 3.21983 36.6581 3.41498 36.6386C3.61013 36.6191 3.79664 36.5483 3.95556 36.4333L9.67778 32.2222H24.6111C25.0322 32.2347 25.4514 32.1605 25.8427 32.0044C26.234 31.8483 26.5891 31.6134 26.886 31.3145C27.1828 31.0155 27.4152 30.6588 27.5686 30.2664C27.722 29.8741 27.7932 29.4544 27.7778 29.0333V27.7778H25.5556V28.8889Z" fill="#BFBFBF"/>
<path d="M34.4445 4.44446H15.5556C14.6715 4.44446 13.8237 4.79565 13.1985 5.42077C12.5734 6.04589 12.2222 6.89374 12.2222 7.77779V21.1111C12.2222 21.9952 12.5734 22.843 13.1985 23.4681C13.8237 24.0933 14.6715 24.4445 15.5556 24.4445H30.6111L35.9222 28.5667C36.0801 28.6834 36.2661 28.7562 36.4613 28.7777C36.6565 28.7992 36.8539 28.7685 37.0333 28.6889C37.2224 28.5988 37.3822 28.4572 37.4943 28.2803C37.6063 28.1033 37.6661 27.8983 37.6667 27.6889V7.77779C37.6672 6.91266 37.3313 6.08122 36.73 5.4592C36.1287 4.83718 35.3091 4.4733 34.4445 4.44446ZM35.5556 25.4889L31.6667 22.4556C31.4727 22.305 31.2344 22.223 30.9889 22.2222H15.5556C15.2609 22.2222 14.9783 22.1052 14.7699 21.8968C14.5615 21.6884 14.4445 21.4058 14.4445 21.1111V7.77779C14.4445 7.48311 14.5615 7.20049 14.7699 6.99212C14.9783 6.78374 15.2609 6.66668 15.5556 6.66668H34.4445C34.7415 6.69364 35.0184 6.82826 35.223 7.04519C35.4277 7.26212 35.5459 7.54638 35.5556 7.84446V25.4889Z" fill="#BFBFBF"/>
</g>
<defs>
<clipPath id="clip0_252_1044">
<rect width="40" height="40" fill="white"/>
</clipPath>
</defs>
</svg>
