<svg width="41" height="41" viewBox="0 0 41 41" fill="none" xmlns="http://www.w3.org/2000/svg">
<g clip-path="url(#clip0_114_3206)">
<path d="M14.25 9C14.25 7.89543 15.1454 7 16.25 7H34.25C35.3546 7 36.25 7.89543 36.25 9V25.7929C36.25 26.1834 35.9334 26.5 35.5429 26.5C35.3554 26.5 35.1755 26.4255 35.0429 26.2929L32.3358 23.5858C31.9607 23.2107 31.452 23 30.9216 23H16.25C15.1454 23 14.25 22.1046 14.25 21V9Z" fill="#F35843"/>
<path d="M26.25 16C26.25 14.8954 25.3546 14 24.25 14H5.25C4.14543 14 3.25 14.8954 3.25 16V34.2653C3.25 34.6711 3.57895 35 3.98472 35C4.18336 35 4.37354 34.9196 4.51189 34.777L7.36537 31.8377C7.742 31.4497 8.25968 31.2308 8.8004 31.2308H24.25C25.3546 31.2308 26.25 30.3353 26.25 29.2308V16Z" fill="#F35843"/>
<path d="M25.8056 29.3889C25.8056 29.6836 25.6885 29.9662 25.4801 30.1746C25.2718 30.3829 24.9891 30.5 24.6945 30.5H9.1389C8.89445 30.5 8.66112 30.7222 8.46112 30.8667L4.69445 33.8333V16.0556C4.69445 15.7609 4.81151 15.4783 5.01989 15.2699C5.22826 15.0615 5.51088 14.9445 5.80556 14.9445H10.0945V12.7222H5.80556C4.92151 12.7222 4.07366 13.0734 3.44854 13.6985C2.82342 14.3237 2.47223 15.1715 2.47223 16.0556V36.0556C2.47388 36.2619 2.53297 36.4637 2.64287 36.6384C2.75277 36.8131 2.90914 36.9537 3.09445 37.0445C3.27298 37.1256 3.46983 37.1581 3.66498 37.1386C3.86013 37.1191 4.04664 37.0483 4.20556 36.9333L9.92778 32.7222H24.8611C25.2822 32.7347 25.7014 32.6605 26.0927 32.5044C26.484 32.3483 26.8391 32.1134 27.136 31.8145C27.4328 31.5155 27.6652 31.1588 27.8186 30.7664C27.972 30.3741 28.0432 29.9544 28.0278 29.5333V28.2778H25.8056V29.3889Z" fill="black"/>
<path d="M34.6945 4.94446H15.8056C14.9215 4.94446 14.0737 5.29565 13.4485 5.92077C12.8234 6.54589 12.4722 7.39374 12.4722 8.27779V21.6111C12.4722 22.4952 12.8234 23.343 13.4485 23.9681C14.0737 24.5933 14.9215 24.9445 15.8056 24.9445H30.8611L36.1722 29.0667C36.3301 29.1834 36.5161 29.2562 36.7113 29.2777C36.9065 29.2992 37.1039 29.2685 37.2833 29.1889C37.4724 29.0989 37.6322 28.9572 37.7443 28.7803C37.8563 28.6033 37.9161 28.3983 37.9167 28.1889V8.27779C37.9172 7.41266 37.5813 6.58122 36.98 5.9592C36.3787 5.33718 35.5591 4.9733 34.6945 4.94446ZM35.8056 25.9889L31.9167 22.9556C31.7227 22.805 31.4844 22.723 31.2389 22.7222H15.8056C15.5109 22.7222 15.2283 22.6052 15.0199 22.3968C14.8115 22.1884 14.6945 21.9058 14.6945 21.6111V8.27779C14.6945 7.98311 14.8115 7.70049 15.0199 7.49212C15.2283 7.28374 15.5109 7.16668 15.8056 7.16668H34.6945C34.9915 7.19364 35.2684 7.32826 35.473 7.54519C35.6777 7.76212 35.7959 8.04638 35.8056 8.34446V25.9889Z" fill="black"/>
</g>
<defs>
<clipPath id="clip0_114_3206">
<rect width="40" height="40" fill="white" transform="translate(0.25 0.5)"/>
</clipPath>
</defs>
</svg>
