<svg width="40" height="40" viewBox="0 0 40 40" fill="none" xmlns="http://www.w3.org/2000/svg">
<path fill-rule="evenodd" clip-rule="evenodd" d="M22.9277 6C22.1956 6 21.4718 6.32192 20.9237 6.9314L20.7433 7.13185C20.5537 7.34261 20.2835 7.46298 20 7.46301C19.7165 7.46303 19.4463 7.34272 19.2567 7.13199L19.0763 6.93159C17.9595 5.69021 16.185 5.68998 15.0681 6.93144C13.9108 8.21779 13.9108 10.3313 15.0681 11.6176L20.0009 17.1006C21.1219 15.9408 22.1825 14.733 23.2595 13.5065C23.8092 12.8805 24.3633 12.2495 24.9318 11.6176C25.479 11.0097 25.8001 10.1684 25.8001 9.27453C25.8001 8.38075 25.4792 7.53963 24.9319 6.93157C24.384 6.32227 23.66 6 22.9277 6ZM20.0005 5.05706C20.8302 4.38243 21.8531 4 22.9277 4C24.261 4 25.5146 4.58858 26.4185 5.59364C27.3135 6.5881 27.8001 7.91306 27.8001 9.27453C27.8001 10.636 27.3135 11.9611 26.4185 12.9555C25.8848 13.5486 25.3482 14.1596 24.8065 14.7763C23.6981 16.0383 22.5688 17.324 21.402 18.5288L21.397 18.5339C20.5964 19.3488 19.3033 19.3153 18.5419 18.4691L13.5812 12.9553C11.7397 10.9084 11.7397 7.64065 13.5812 5.59378C15.3152 3.66645 18.076 3.4875 20.0005 5.05706Z" fill="#BFBFBF"/>
<path fill-rule="evenodd" clip-rule="evenodd" d="M30.9001 17.1875C30.9001 15.1763 32.3996 13.375 34.4501 13.375C36.5006 13.375 38.0001 15.1763 38.0001 17.1875V27.0341C38.0001 27.5677 37.8088 28.0968 37.4423 28.5011L30.9409 35.6717C30.57 36.0808 29.9376 36.1118 29.5284 35.7408C29.1193 35.3699 29.0883 34.7375 29.4593 34.3283L35.9606 27.1577C35.9765 27.1402 36.0001 27.0971 36.0001 27.0341V17.1875C36.0001 16.092 35.2162 15.375 34.4501 15.375C33.684 15.375 32.9001 16.092 32.9001 17.1875V25.625C32.9001 26.1773 32.4524 26.625 31.9001 26.625C31.3478 26.625 30.9001 26.1773 30.9001 25.625V17.1875Z" fill="#BFBFBF"/>
<path fill-rule="evenodd" clip-rule="evenodd" d="M31.1748 23.1457C31.1748 23.1457 31.1747 23.1456 31.1748 23.1457L31.9276 23.5607C32.5553 23.9071 32.9 24.5761 32.9 25.2489C32.9 25.7249 32.7294 26.199 32.3996 26.5628L30.9408 28.1717C30.5699 28.5808 29.9375 28.6118 29.5283 28.2408C29.1192 27.8699 29.0882 27.2375 29.4592 26.8283L30.8765 25.2651L30.209 24.897C29.3237 24.4088 28.2452 24.5823 27.508 25.3954L25.9867 27.0733C25.5243 27.5833 25.25 28.2941 25.25 29.0533V35C25.25 35.5523 24.8023 36 24.25 36C23.6977 36 23.25 35.5523 23.25 35V29.0533C23.25 27.8234 23.692 26.6266 24.505 25.7299L26.0264 24.052C27.3587 22.5825 29.4424 22.1903 31.1748 23.1457Z" fill="#BFBFBF"/>
<path fill-rule="evenodd" clip-rule="evenodd" d="M5.55 15.375C4.78389 15.375 4 16.092 4 17.1875V27.0341C4 27.097 4.02359 27.1401 4.0395 27.1576L10.5408 34.3283C10.9118 34.7375 10.8808 35.3699 10.4717 35.7408C10.0625 36.1118 9.43012 36.0808 9.05916 35.6717L2.55801 28.5012C2.19132 28.0969 2 27.5677 2 27.0341V17.1875C2 15.1764 3.49945 13.375 5.55 13.375C7.60055 13.375 9.1 15.1764 9.1 17.1875V25.625C9.1 26.1773 8.65228 26.625 8.1 26.625C7.54772 26.625 7.1 26.1773 7.1 25.625V17.1875C7.1 16.092 6.31611 15.375 5.55 15.375Z" fill="#BFBFBF"/>
<path fill-rule="evenodd" clip-rule="evenodd" d="M12.4918 25.3954C11.7546 24.5823 10.6763 24.4087 9.79085 24.897L9.12323 25.2651L10.5406 26.8283C10.9116 27.2375 10.8806 27.8699 10.4715 28.2408C10.0623 28.6118 9.42994 28.5809 9.05897 28.1717L7.60015 26.5628C7.27071 26.1992 7.09979 25.7251 7.09979 25.2489C7.09979 24.5762 7.44403 23.9073 8.07185 23.5609L8.82501 23.1457C8.82505 23.1456 8.82497 23.1457 8.82501 23.1457C10.5575 22.1903 12.641 22.5825 13.9734 24.052L15.4948 25.7299C16.3077 26.6266 16.7498 27.8234 16.7498 29.0533V35C16.7498 35.5523 16.3021 36 15.7498 36C15.1975 36 14.7498 35.5523 14.7498 35V29.0533C14.7498 28.2941 14.4755 27.5833 14.0131 27.0733M14.0131 27.0733L12.4918 25.3954C12.4918 25.3954 12.4918 25.3954 12.4918 25.3954" fill="#BFBFBF"/>
</svg>
