<svg width="41" height="41" viewBox="0 0 41 41" fill="none" xmlns="http://www.w3.org/2000/svg">
<path d="M27.55 9.27844C27.55 10.4061 27.1463 11.4892 26.4251 12.2904C24.7652 14.1353 23.1555 16.059 21.4336 17.837C21.039 18.2386 20.4129 18.224 20.0352 17.8042L15.0746 12.2904C13.5752 10.6238 13.5752 7.93313 15.0746 6.26651C16.5887 4.58351 19.0555 4.58351 20.5695 6.26651L20.7498 6.46691L20.93 6.26663C21.6561 5.45927 22.6448 5.00391 23.6776 5.00391C24.7105 5.00391 25.6992 5.45923 26.4251 6.26651C27.1463 7.06778 27.55 8.15081 27.55 9.27844Z" fill="#F35843" stroke="black" stroke-width="2" stroke-linejoin="round"/>
<path d="M32.7499 27.9961C32.7499 26.8915 31.8545 25.9961 30.7499 25.9961H26.7499C25.6453 25.9961 24.7499 26.8915 24.7499 27.9961V35.9961H29.7499C31.4068 35.9961 32.7499 34.6529 32.7499 32.9961V27.9961Z" fill="#F35843"/>
<path d="M30.95 35.0039L37.4513 27.8333C37.6426 27.6224 37.75 27.3363 37.75 27.038V17.1914C37.75 15.6381 36.6083 14.3789 35.2 14.3789C33.7917 14.3789 32.65 15.6381 32.65 17.1914V25.6289" fill="#F35843"/>
<path d="M30.95 35.0039L37.4513 27.8333C37.6426 27.6224 37.75 27.3363 37.75 27.038V17.1914C37.75 15.6381 36.6083 14.3789 35.2 14.3789C33.7917 14.3789 32.65 15.6381 32.65 17.1914V25.6289" stroke="black" stroke-width="2" stroke-linecap="round" stroke-linejoin="round"/>
<path d="M30.9499 27.5039L32.4087 25.895C32.5632 25.7245 32.6499 25.4935 32.6499 25.2528C32.6499 24.9087 32.4736 24.5943 32.1946 24.4404L31.4417 24.0252C30.1329 23.3034 28.5519 23.5863 27.5171 24.7276L25.9958 26.4055C25.3581 27.1089 24.9999 28.0627 24.9999 29.0572V35.0039" fill="#F35843"/>
<path d="M30.9499 27.5039L32.4087 25.895C32.5632 25.7245 32.6499 25.4935 32.6499 25.2528C32.6499 24.9087 32.4736 24.5943 32.1946 24.4404L31.4417 24.0252C30.1329 23.3034 28.5519 23.5863 27.5171 24.7276L25.9958 26.4055C25.3581 27.1089 24.9999 28.0627 24.9999 29.0572V35.0039" stroke="black" stroke-width="2" stroke-linecap="round" stroke-linejoin="round"/>
<path d="M8.74991 27.9883C8.74991 26.8837 9.64534 25.9883 10.7499 25.9883H14.7499C15.8545 25.9883 16.7499 26.8837 16.7499 27.9883V35.9883H11.7499C10.0931 35.9883 8.74991 34.6451 8.74991 32.9883V27.9883Z" fill="#F35843"/>
<path d="M10.5499 35.0039L4.04867 27.8333C3.85737 27.6224 3.74991 27.3363 3.74991 27.038V17.1914C3.74991 15.6381 4.89158 14.3789 6.29991 14.3789C7.70824 14.3789 8.84991 15.6381 8.84991 17.1914V25.6289" fill="#F35843"/>
<path d="M10.5499 35.0039L4.04867 27.8333C3.85737 27.6224 3.74991 27.3363 3.74991 27.038V17.1914C3.74991 15.6381 4.89158 14.3789 6.29991 14.3789C7.70824 14.3789 8.84991 15.6381 8.84991 17.1914V25.6289" stroke="black" stroke-width="2" stroke-linecap="round" stroke-linejoin="round"/>
<path d="M10.5497 27.5039L9.09088 25.895C8.93645 25.7245 8.8497 25.4935 8.8497 25.2528C8.8497 24.9087 9.02592 24.5943 9.30489 24.4404L10.0578 24.0252C11.3668 23.3034 12.9477 23.5863 13.9825 24.7276L15.5039 26.4055C16.1415 27.1089 16.4997 28.0627 16.4997 29.0572V35.0039" fill="#F35843"/>
<path d="M10.5497 27.5039L9.09088 25.895C8.93645 25.7245 8.8497 25.4935 8.8497 25.2528C8.8497 24.9087 9.02592 24.5943 9.30489 24.4404L10.0578 24.0252C11.3668 23.3034 12.9477 23.5863 13.9825 24.7276L15.5039 26.4055C16.1415 27.1089 16.4997 28.0627 16.4997 29.0572V35.0039" stroke="black" stroke-width="2" stroke-linecap="round" stroke-linejoin="round"/>
</svg>
