<svg width="40" height="40" viewBox="0 0 40 40" fill="none" xmlns="http://www.w3.org/2000/svg">
<path fill-rule="evenodd" clip-rule="evenodd" d="M11.3225 9.1933C7.88914 12.1065 5.14535 16.7614 3.45224 22.0399C3.28356 22.5657 2.72049 22.8553 2.19459 22.6866C1.6687 22.518 1.37913 21.9549 1.54781 21.429C3.31524 15.9188 6.22506 10.8955 10.0286 7.66829C13.8677 4.41086 18.6394 2.97984 23.9256 4.7949L23.6008 5.7407L23.9256 4.7949C25.7432 5.41902 27.0014 6.20736 27.8757 7.14251C28.756 8.08422 29.1829 9.10658 29.4446 10.0799C29.5733 10.5584 29.6642 11.0341 29.7458 11.4708C29.7518 11.5029 29.7578 11.5349 29.7637 11.5666C29.8402 11.9767 29.9097 12.3492 29.9998 12.7116C30.184 13.453 30.4363 14.07 30.9125 14.606C31.0518 14.707 31.3187 14.8041 31.8145 14.8404C32.2961 14.8756 32.839 14.8463 33.4583 14.8129C33.5204 14.8096 33.5833 14.8062 33.647 14.8028C34.2999 14.7683 35.0555 14.7343 35.726 14.8372C36.3991 14.9404 37.1909 15.2121 37.6802 15.965L37.6803 15.9652C38.3383 16.9781 38.3708 18.2834 38.2841 19.3634C38.2225 20.1307 38.0794 20.9547 37.96 21.6421C37.9102 21.9292 37.8645 22.1924 37.8306 22.4178L37.8305 22.4179C37.2607 26.202 35.0065 28.3992 32.1666 29.6037C29.3935 30.7799 26.0426 31.0259 23.0962 31.0259C22.5439 31.0259 22.0962 30.5782 22.0962 30.0259C22.0962 29.4736 22.5439 29.0259 23.0962 29.0259C25.9872 29.0259 29 28.7743 31.3857 27.7625C33.7047 26.7789 35.4045 25.0976 35.8528 22.1201C35.8998 21.8081 35.9544 21.4947 36.0095 21.1789C36.122 20.5336 36.2363 19.8782 36.2905 19.2033C36.3718 18.1906 36.2753 17.4739 36.0032 17.0548C35.9664 16.9982 35.8551 16.8803 35.4228 16.814C34.9879 16.7473 34.4356 16.7639 33.7527 16.8C33.6876 16.8035 33.6213 16.8071 33.554 16.8108C32.9611 16.8432 32.2858 16.8801 31.6687 16.835C30.9924 16.7856 30.1905 16.6288 29.5689 16.0907C29.5408 16.0664 29.5141 16.0405 29.4888 16.0132C28.6669 15.1234 28.2917 14.1311 28.0588 13.194C27.9537 12.7711 27.8737 12.3417 27.7995 11.9434C27.7929 11.9081 27.7864 11.873 27.7799 11.8381C27.6978 11.3992 27.6193 10.9937 27.5132 10.5993C27.3055 9.82678 27.0018 9.13633 26.4147 8.50836C25.8215 7.87383 24.8753 7.23565 23.2761 6.6865C18.7686 5.13883 14.7203 6.31035 11.3225 9.1933Z" fill="#BFBFBF"/>
<path fill-rule="evenodd" clip-rule="evenodd" d="M33.4264 15.6692C33.7149 15.1983 34.3306 15.0505 34.8015 15.3391C36.1729 16.1795 37.4782 17.2675 38.0861 18.5655C38.3204 19.0656 38.1049 19.661 37.6047 19.8952C37.1046 20.1295 36.5092 19.914 36.275 19.4138C35.9207 18.6575 35.0302 17.8249 33.7565 17.0444C33.2856 16.7558 33.1378 16.1401 33.4264 15.6692Z" fill="#BFBFBF"/>
<path fill-rule="evenodd" clip-rule="evenodd" d="M19.4483 14.1036C20.0006 14.1036 20.4483 14.5514 20.4483 15.1036C20.4483 15.8421 20.4591 16.6325 20.4703 17.4573C20.5201 21.1108 20.5791 25.4397 19.7522 28.9201C19.2409 31.072 18.3598 33.0604 16.7949 34.3894C15.19 35.7523 13.0206 36.2937 10.2299 35.8453C10.2102 35.8421 10.1907 35.8383 10.1712 35.834C8.21275 35.3978 7.34454 33.7664 7.04057 32.0177C6.73846 30.2797 6.92328 28.1489 7.27294 26.0974C7.62612 24.0252 8.16555 21.9369 8.63244 20.2501C8.77577 19.7323 8.91556 19.2408 9.04027 18.8023C9.11686 18.533 9.18775 18.2837 9.25027 18.0606C9.42398 17.4409 9.52763 17.0411 9.56014 16.842C9.64913 16.2969 10.1631 15.9272 10.7082 16.0162C11.2533 16.1052 11.623 16.6192 11.534 17.1642C11.4797 17.497 11.34 18.0155 11.176 18.6005C11.109 18.8396 11.0365 19.0945 10.9593 19.3659C10.8369 19.7961 10.7028 20.2677 10.56 20.7837C10.0984 22.4513 9.58047 24.4622 9.24451 26.4334C8.90501 28.4253 8.76887 30.2821 9.01102 31.6752C9.24868 33.0423 9.78072 33.6864 10.5792 33.8757C12.9181 34.245 14.4459 33.7603 15.5002 32.865C16.5992 31.9317 17.3396 30.422 17.8063 28.4577C18.5695 25.2458 18.5176 21.2487 18.4703 17.6009C18.4592 16.7443 18.4483 15.907 18.4483 15.1036C18.4483 14.5514 18.8961 14.1036 19.4483 14.1036Z" fill="#BFBFBF"/>
<path fill-rule="evenodd" clip-rule="evenodd" d="M24.6072 13.9482C25.1595 13.9482 25.6072 14.396 25.6072 14.9482V15.7254C25.6072 16.2777 25.1595 16.7254 24.6072 16.7254C24.0549 16.7254 23.6072 16.2777 23.6072 15.7254V14.9482C23.6072 14.396 24.0549 13.9482 24.6072 13.9482Z" fill="#BFBFBF"/>
</svg>
