<svg width="40" height="41" viewBox="0 0 40 41" fill="none" xmlns="http://www.w3.org/2000/svg">
<path d="M2.5 22.2344C5.96054 11.4458 13.8072 2.87796 23.6008 6.24069C30.4346 8.58722 27.5678 12.9599 30.2234 15.8346C31.7217 17.1315 35.7895 15.3908 36.8417 17.0099C37.7718 18.4418 37.0998 21.0542 36.8417 22.769C35.8235 29.5306 28.9336 30.5259 23.0962 30.5259" fill="#F35843"/>
<path d="M2.5 22.2344C5.96054 11.4458 13.8072 2.87796 23.6008 6.24069C30.4346 8.58722 27.5678 12.9599 30.2234 15.8346C31.7217 17.1315 35.7895 15.3908 36.8417 17.0099C37.7718 18.4418 37.0998 21.0542 36.8417 22.769C35.8235 29.5306 28.9336 30.5259 23.0962 30.5259" stroke="black" stroke-width="2" stroke-linecap="round" stroke-linejoin="round"/>
<path d="M37.1805 19.4896C36.6994 18.4625 35.6015 17.5022 34.279 16.6917" stroke="black" stroke-width="2" stroke-linecap="round" stroke-linejoin="round"/>
<path d="M10.5471 17.5031C10.1997 19.6308 4.84496 34.1233 10.3886 35.3579C20.684 37.0124 19.4483 23.8375 19.4483 15.6036" fill="#F35843"/>
<path d="M10.5471 17.5031C10.1997 19.6308 4.84496 34.1233 10.3886 35.3579C20.684 37.0124 19.4483 23.8375 19.4483 15.6036" stroke="black" stroke-width="2" stroke-linecap="round" stroke-linejoin="round"/>
<path d="M24.6071 15.4482V16.2254" stroke="black" stroke-width="2" stroke-linecap="round" stroke-linejoin="round"/>
</svg>
