<svg width="43" height="44" viewBox="0 0 43 44" fill="none" xmlns="http://www.w3.org/2000/svg">
<path fill-rule="evenodd" clip-rule="evenodd" d="M17.468 20.1576C17.7968 20.1169 18.1245 20.2417 18.3429 20.4908C18.8023 21.0148 19.3917 21.4448 20.0718 21.7428C20.752 22.0408 21.5014 22.1971 22.2634 22.1971C23.0254 22.1971 23.7747 22.0408 24.455 21.7428C25.1351 21.4448 25.7245 21.0148 26.1838 20.4908C26.4022 20.2417 26.7298 20.1169 27.0586 20.1576C32.5111 20.8323 35.7398 22.7621 37.5324 25.6734C39.276 28.5051 39.5268 32.0747 39.5268 35.6844C39.5268 36.2366 39.0791 36.6844 38.5268 36.6844C37.9745 36.6844 37.5268 36.2366 37.5268 35.6844C37.5268 32.0721 37.2482 29.0262 35.8294 26.722C34.5047 24.5708 32.0607 22.8854 27.3074 22.2082C26.7185 22.7767 26.0232 23.2392 25.2576 23.5746C24.32 23.9854 23.2969 24.1971 22.2634 24.1971C21.2299 24.1971 20.2068 23.9854 19.2692 23.5746C18.5036 23.2392 17.8083 22.7768 17.2195 22.2083C12.4726 22.8858 10.0282 24.5712 8.7019 26.7229C7.28158 29.0271 7 32.073 7 35.6836C7 36.2359 6.55228 36.6836 6 36.6836C5.44772 36.6836 5 36.2359 5 35.6836C5 32.0738 5.25409 28.5049 6.99935 25.6734C8.79337 22.7629 12.0215 20.8327 17.468 20.1576Z" fill="#BFBFBF"/>
<path fill-rule="evenodd" clip-rule="evenodd" d="M22.2701 4.79089C18.9578 4.79089 16.6197 7.54069 16.8147 11.1921C16.9129 13.0299 17.6323 14.7534 18.6758 16.0047C19.7261 17.264 21.0258 17.9616 22.2703 17.9618C23.5241 17.9621 24.8798 17.2564 25.9536 15.9984C27.0185 14.7507 27.7232 13.0478 27.7232 11.2454C27.7232 9.37849 27.1649 7.7517 26.2226 6.61102C25.2943 5.48721 23.9616 4.79089 22.2701 4.79089ZM14.8176 11.2987C14.5734 6.72697 17.5983 2.79089 22.2701 2.79089C24.5706 2.79089 26.4644 3.76319 27.7646 5.33732C29.0509 6.89457 29.7232 8.99504 29.7232 11.2454C29.7232 13.5596 28.8247 15.7152 27.4748 17.2968C26.1338 18.868 24.263 19.9623 22.2698 19.9618C20.2673 19.9614 18.4499 18.8565 17.1399 17.2857C15.8231 15.7068 14.939 13.5725 14.8176 11.2987Z" fill="#BFBFBF"/>
<path fill-rule="evenodd" clip-rule="evenodd" d="M12.5394 27.7676C13.0465 27.9864 13.2803 28.5748 13.0616 29.0819C12.5619 30.2403 12.2981 31.762 12.1676 33.3929C12.0596 34.7434 12.0467 36.1086 12.0454 37.3264C15.3123 38.4316 18.7735 38.9994 22.2663 39C25.762 39.0007 29.2248 38.4211 32.4849 37.2929C32.4745 34.8561 32.3866 31.8362 31.7119 29.7295C31.5434 29.2036 31.8333 28.6406 32.3592 28.4722C32.8852 28.3037 33.4481 28.5936 33.6166 29.1195C34.4721 31.7908 34.4862 35.5479 34.4862 37.996C34.4862 38.4139 34.2263 38.7877 33.8346 38.9333C30.1599 40.2994 26.2309 41.0007 22.266 41C18.3075 40.9993 14.3837 40.3127 10.7037 38.9751C10.3085 38.8314 10.0453 38.4558 10.0453 38.0352C10.0453 37.9614 10.0453 37.8866 10.0453 37.8107C10.0448 36.4859 10.0443 34.855 10.174 33.2334C10.3102 31.5306 10.5954 29.7499 11.2251 28.2898C11.4438 27.7827 12.0322 27.5489 12.5394 27.7676Z" fill="#BFBFBF"/>
<path fill-rule="evenodd" clip-rule="evenodd" d="M6.9231 35.299C6.77225 34.938 6.41575 34.6843 6 34.6843C5.44772 34.6843 5 35.132 5 35.6843C5 36.1111 5.22932 36.4162 5.34906 36.5551C5.49357 36.7228 5.66955 36.8654 5.83985 36.9837C6.18557 37.2237 6.63904 37.4532 7.14853 37.652C8.1717 38.0514 9.54972 38.3771 11.0194 38.3771C11.5717 38.3771 12.0194 37.9294 12.0194 37.3771C12.0194 36.8249 11.5717 36.3771 11.0194 36.3771C9.82886 36.3771 8.69715 36.1095 7.87568 35.7889C7.46285 35.6278 7.16027 35.4656 6.98052 35.3408C6.95765 35.325 6.93866 35.311 6.9231 35.299Z" fill="#BFBFBF"/>
<path fill-rule="evenodd" clip-rule="evenodd" d="M38.5268 34.6843C39.0791 34.6843 39.5268 35.132 39.5268 35.6843C39.5268 36.1111 39.2974 36.4162 39.1777 36.5551C39.0332 36.7228 38.8572 36.8654 38.6869 36.9837C38.3412 37.2237 37.8877 37.4532 37.3782 37.652C36.3551 38.0514 34.977 38.3771 33.5073 38.3771C32.955 38.3771 32.5073 37.9294 32.5073 37.3771C32.5073 36.8249 32.955 36.3771 33.5073 36.3771C34.6979 36.3771 35.8296 36.1095 36.6511 35.7889C37.0639 35.6278 37.3665 35.4656 37.5462 35.3408C37.5691 35.325 37.5881 35.311 37.6037 35.299C37.7545 34.938 38.111 34.6843 38.5268 34.6843Z" fill="#BFBFBF"/>
<path d="M26.597 30.251H23.7328V27.6446H20.7932V30.251H17.929V32.9259H20.7932V35.5323H23.7328V32.9259H26.597V30.251Z" fill="#BFBFBF"/>
</svg>
