<svg width="43" height="44" viewBox="0 0 43 44" fill="none" xmlns="http://www.w3.org/2000/svg">
<path d="M5.16982 28.1471C5.66789 25.0591 8.04998 22.6156 11.1243 22.0392L12.7395 21.7363C13.5745 21.5798 14.4291 21.5572 15.2712 21.6695L20.7079 22.3944C21.2347 22.4646 21.7671 22.4822 22.2974 22.4468L28.2357 22.051C28.7441 22.0171 29.2545 22.0318 29.7601 22.095L30.802 22.2253C34.4446 22.6806 37.3099 25.5566 37.7516 29.2008L37.9664 30.9726C38.4954 35.3373 34.8298 39.061 30.4574 38.6008V38.6008C29.8223 38.5339 29.1809 38.5563 28.552 38.6673L22.5154 39.7326C21.5143 39.9092 20.4887 39.8935 19.4935 39.6861L9.66333 37.6382C9.22524 37.5469 8.77364 37.5412 8.33335 37.6212V37.6212C5.97444 38.0501 3.90047 36.0171 4.28224 33.6501L5.16982 28.1471Z" fill="#F35843"/>
<ellipse cx="21.5" cy="11.5" rx="6.5" ry="7.5" fill="#F35843"/>
<path fill-rule="evenodd" clip-rule="evenodd" d="M16.468 20.3667C16.7968 20.326 17.1245 20.4508 17.3429 20.6999C17.8023 21.2239 18.3917 21.6539 19.0718 21.9519C19.752 22.2499 20.5014 22.4062 21.2634 22.4062C22.0254 22.4062 22.7747 22.2499 23.455 21.9519C24.1351 21.6539 24.7245 21.2239 25.1838 20.6999C25.4022 20.4508 25.7298 20.326 26.0586 20.3667C31.5111 21.0414 34.7398 22.9712 36.5324 25.8825C38.276 28.7142 38.5268 32.2838 38.5268 35.8935C38.5268 36.4457 38.0791 36.8935 37.5268 36.8935C36.9745 36.8935 36.5268 36.4457 36.5268 35.8935C36.5268 32.2812 36.2482 29.2353 34.8294 26.9311C33.5047 24.7799 31.0607 23.0945 26.3074 22.4173C25.7185 22.9858 25.0232 23.4483 24.2576 23.7838C23.32 24.1945 22.2969 24.4062 21.2634 24.4062C20.2299 24.4062 19.2068 24.1945 18.2692 23.7838C17.5036 23.4483 16.8083 22.9859 16.2195 22.4174C11.4726 23.095 9.02816 24.7803 7.7019 26.932C6.28158 29.2362 6 32.2822 6 35.8927C6 36.445 5.55228 36.8927 5 36.8927C4.44772 36.8927 4 36.445 4 35.8927C4 32.2829 4.25409 28.714 5.99935 25.8825C7.79337 22.972 11.0215 21.0418 16.468 20.3667Z" fill="black"/>
<path fill-rule="evenodd" clip-rule="evenodd" d="M21.2701 5C17.9578 5 15.6197 7.74979 15.8147 11.4012C15.9129 13.239 16.6323 14.9625 17.6758 16.2138C18.7261 17.4731 20.0258 18.1707 21.2703 18.1709C22.5241 18.1712 23.8798 17.4656 24.9536 16.2075C26.0185 14.9598 26.7232 13.2569 26.7232 11.4545C26.7232 9.58759 26.1649 7.96081 25.2226 6.82013C24.2943 5.69631 22.9616 5 21.2701 5ZM13.8176 11.5078C13.5734 6.93608 16.5983 3 21.2701 3C23.5706 3 25.4644 3.9723 26.7646 5.54642C28.0509 7.10368 28.7232 9.20415 28.7232 11.4545C28.7232 13.7687 27.8247 15.9243 26.4748 17.5059C25.1338 19.0771 23.263 20.1714 21.2698 20.1709C19.2673 20.1705 17.4499 19.0656 16.1399 17.4948C14.8231 15.9159 13.939 13.7816 13.8176 11.5078Z" fill="black"/>
<path fill-rule="evenodd" clip-rule="evenodd" d="M11.5394 27.9767C12.0465 28.1955 12.2803 28.7839 12.0616 29.291C11.5619 30.4495 11.2981 31.9711 11.1676 33.602C11.0596 34.9525 11.0467 36.3177 11.0454 37.5355C14.3123 38.6407 17.7735 39.2085 21.2663 39.2091C24.762 39.2098 28.2248 38.6302 31.4849 37.502C31.4745 35.0652 31.3866 32.0453 30.7119 29.9387C30.5434 29.4127 30.8333 28.8497 31.3592 28.6813C31.8852 28.5128 32.4481 28.8027 32.6166 29.3286C33.4721 31.9999 33.4862 35.757 33.4862 38.2051C33.4862 38.623 33.2263 38.9968 32.8346 39.1424C29.1599 40.5085 25.2309 41.2098 21.266 41.2091C17.3075 41.2084 13.3837 40.5218 9.70372 39.1842C9.30846 39.0405 9.04533 38.6649 9.04533 38.2443C9.04533 38.1705 9.0453 38.0957 9.04528 38.0198C9.04484 36.695 9.0443 35.0641 9.174 33.4426C9.3102 31.7397 9.59536 29.959 10.2251 28.4989C10.4438 27.9918 11.0322 27.758 11.5394 27.9767Z" fill="black"/>
<path fill-rule="evenodd" clip-rule="evenodd" d="M5.9231 35.5081C5.77225 35.1471 5.41575 34.8934 5 34.8934C4.44772 34.8934 4 35.3411 4 35.8934C4 36.3202 4.22932 36.6253 4.34906 36.7642C4.49357 36.9319 4.66955 37.0745 4.83985 37.1928C5.18557 37.4328 5.63904 37.6623 6.14853 37.8611C7.1717 38.2605 8.54972 38.5863 10.0194 38.5863C10.5717 38.5863 11.0194 38.1385 11.0194 37.5863C11.0194 37.034 10.5717 36.5863 10.0194 36.5863C8.82886 36.5863 7.69715 36.3186 6.87568 35.998C6.46285 35.8369 6.16027 35.6748 5.98052 35.5499C5.95765 35.5341 5.93866 35.5201 5.9231 35.5081Z" fill="black"/>
<path fill-rule="evenodd" clip-rule="evenodd" d="M37.5268 34.8934C38.0791 34.8934 38.5268 35.3411 38.5268 35.8934C38.5268 36.3202 38.2974 36.6253 38.1777 36.7642C38.0332 36.9319 37.8572 37.0745 37.6869 37.1928C37.3412 37.4328 36.8877 37.6623 36.3782 37.8611C35.3551 38.2605 33.977 38.5863 32.5073 38.5863C31.955 38.5863 31.5073 38.1385 31.5073 37.5863C31.5073 37.034 31.955 36.5863 32.5073 36.5863C33.6979 36.5863 34.8296 36.3186 35.6511 35.998C36.0639 35.8369 36.3665 35.6748 36.5462 35.5499C36.5691 35.5341 36.5881 35.5201 36.6037 35.5081C36.7545 35.1471 37.111 34.8934 37.5268 34.8934Z" fill="black"/>
<path d="M25.597 30.4601H22.7328V27.8537H19.7932V30.4601H16.929V33.135H19.7932V35.7414H22.7328V33.135H25.597V30.4601Z" fill="black"/>
</svg>
